<mxfile host="app.diagrams.net" modified="2022-06-16T08:51:38.608Z" agent="5.0 (Windows NT 10.0; Win64; x64) AppleWebKit/537.36 (KHTML, like Gecko) Chrome/102.0.0.0 Safari/537.36" etag="f7QJmy9MM1FxlDR2DpbU" version="20.0.1" type="github">
  <diagram id="M0q0lzlH9bi6msjk8Zyh" name="Page-1">
    <mxGraphModel dx="1185" dy="733" grid="1" gridSize="10" guides="1" tooltips="1" connect="1" arrows="1" fold="1" page="1" pageScale="1" pageWidth="2339" pageHeight="3300" math="0" shadow="0">
      <root>
        <mxCell id="0" />
        <mxCell id="1" parent="0" />
        <mxCell id="Fzdu2ieI9lXfQCWPKAIY-1" value="&lt;font style=&quot;font-size: 14px;&quot;&gt;&lt;i style=&quot;&quot;&gt;&lt;b&gt;.class&lt;br&gt;字节码文件&lt;/b&gt;&lt;/i&gt;&lt;/font&gt;" style="whiteSpace=wrap;html=1;shape=mxgraph.basic.document;fillColor=#f9f7ed;strokeColor=#36393d;" vertex="1" parent="1">
          <mxGeometry x="170" y="260" width="100" height="100" as="geometry" />
        </mxCell>
        <mxCell id="Fzdu2ieI9lXfQCWPKAIY-2" value="" style="html=1;shadow=0;dashed=0;align=center;verticalAlign=middle;shape=mxgraph.arrows2.arrow;dy=0.6;dx=40;notch=0;fontSize=14;fillColor=#f5f5f5;strokeColor=#666666;fontColor=#333333;" vertex="1" parent="1">
          <mxGeometry x="280" y="300" width="90" height="20" as="geometry" />
        </mxCell>
        <mxCell id="Fzdu2ieI9lXfQCWPKAIY-3" value="" style="rounded=0;whiteSpace=wrap;html=1;fontSize=14;" vertex="1" parent="1">
          <mxGeometry x="400" y="150" width="670" height="330" as="geometry" />
        </mxCell>
        <mxCell id="Fzdu2ieI9lXfQCWPKAIY-4" value="&lt;b&gt;&lt;i&gt;类加载子系统&lt;/i&gt;&lt;/b&gt;" style="text;html=1;align=center;verticalAlign=middle;resizable=0;points=[];autosize=1;strokeColor=none;fillColor=none;fontSize=14;" vertex="1" parent="1">
          <mxGeometry x="645" y="160" width="100" height="20" as="geometry" />
        </mxCell>
        <mxCell id="Fzdu2ieI9lXfQCWPKAIY-5" value="" style="rounded=0;whiteSpace=wrap;html=1;fontSize=14;fillColor=#ffcc99;strokeColor=#36393d;" vertex="1" parent="1">
          <mxGeometry x="430" y="200" width="140" height="260" as="geometry" />
        </mxCell>
        <mxCell id="Fzdu2ieI9lXfQCWPKAIY-6" value="&lt;b&gt;&lt;i&gt;类加载阶段&lt;/i&gt;&lt;/b&gt;" style="text;html=1;align=center;verticalAlign=middle;resizable=0;points=[];autosize=1;strokeColor=none;fillColor=none;fontSize=14;" vertex="1" parent="1">
          <mxGeometry x="455" y="210" width="90" height="20" as="geometry" />
        </mxCell>
        <mxCell id="Fzdu2ieI9lXfQCWPKAIY-7" value="&lt;b&gt;&lt;i&gt;启动类加载器&lt;/i&gt;&lt;/b&gt;" style="rounded=0;whiteSpace=wrap;html=1;fontSize=14;fillColor=#d5e8d4;strokeColor=#82b366;" vertex="1" parent="1">
          <mxGeometry x="440" y="250" width="120" height="60" as="geometry" />
        </mxCell>
        <mxCell id="Fzdu2ieI9lXfQCWPKAIY-8" value="&lt;b&gt;&lt;i&gt;扩展类加载器&lt;/i&gt;&lt;/b&gt;" style="rounded=0;whiteSpace=wrap;html=1;fontSize=14;fillColor=#d5e8d4;strokeColor=#82b366;" vertex="1" parent="1">
          <mxGeometry x="440" y="320" width="120" height="60" as="geometry" />
        </mxCell>
        <mxCell id="Fzdu2ieI9lXfQCWPKAIY-9" value="&lt;b&gt;&lt;i&gt;应用程序类加载器&lt;/i&gt;&lt;/b&gt;" style="rounded=0;whiteSpace=wrap;html=1;fontSize=14;fillColor=#d5e8d4;strokeColor=#82b366;" vertex="1" parent="1">
          <mxGeometry x="440" y="390" width="120" height="60" as="geometry" />
        </mxCell>
        <mxCell id="Fzdu2ieI9lXfQCWPKAIY-10" value="" style="html=1;shadow=0;dashed=0;align=center;verticalAlign=middle;shape=mxgraph.arrows2.arrow;dy=0.6;dx=40;notch=0;fontSize=14;fillColor=#f5f5f5;strokeColor=#666666;fontColor=#333333;" vertex="1" parent="1">
          <mxGeometry x="580" y="300" width="90" height="20" as="geometry" />
        </mxCell>
        <mxCell id="Fzdu2ieI9lXfQCWPKAIY-12" value="" style="rounded=0;whiteSpace=wrap;html=1;fontSize=14;fillColor=#f8cecc;strokeColor=#b85450;" vertex="1" parent="1">
          <mxGeometry x="690" y="200" width="140" height="260" as="geometry" />
        </mxCell>
        <mxCell id="Fzdu2ieI9lXfQCWPKAIY-13" value="&lt;b&gt;&lt;i&gt;链接阶段&lt;/i&gt;&lt;/b&gt;" style="text;html=1;align=center;verticalAlign=middle;resizable=0;points=[];autosize=1;strokeColor=none;fillColor=none;fontSize=14;" vertex="1" parent="1">
          <mxGeometry x="725" y="210" width="70" height="20" as="geometry" />
        </mxCell>
        <mxCell id="Fzdu2ieI9lXfQCWPKAIY-14" value="&lt;b&gt;&lt;i&gt;验证&lt;/i&gt;&lt;/b&gt;" style="rounded=0;whiteSpace=wrap;html=1;fontSize=14;fillColor=#e1d5e7;strokeColor=#9673a6;" vertex="1" parent="1">
          <mxGeometry x="700" y="250" width="120" height="60" as="geometry" />
        </mxCell>
        <mxCell id="Fzdu2ieI9lXfQCWPKAIY-15" value="&lt;b&gt;&lt;i&gt;准备&lt;/i&gt;&lt;/b&gt;" style="rounded=0;whiteSpace=wrap;html=1;fontSize=14;fillColor=#e1d5e7;strokeColor=#9673a6;" vertex="1" parent="1">
          <mxGeometry x="700" y="320" width="120" height="60" as="geometry" />
        </mxCell>
        <mxCell id="Fzdu2ieI9lXfQCWPKAIY-16" value="&lt;b&gt;&lt;i&gt;解析&lt;/i&gt;&lt;/b&gt;" style="rounded=0;whiteSpace=wrap;html=1;fontSize=14;fillColor=#e1d5e7;strokeColor=#9673a6;" vertex="1" parent="1">
          <mxGeometry x="700" y="390" width="120" height="60" as="geometry" />
        </mxCell>
        <mxCell id="Fzdu2ieI9lXfQCWPKAIY-17" value="" style="html=1;shadow=0;dashed=0;align=center;verticalAlign=middle;shape=mxgraph.arrows2.arrow;dy=0.6;dx=40;notch=0;fontSize=14;fillColor=#f5f5f5;strokeColor=#666666;fontColor=#333333;" vertex="1" parent="1">
          <mxGeometry x="840" y="300" width="90" height="20" as="geometry" />
        </mxCell>
        <mxCell id="Fzdu2ieI9lXfQCWPKAIY-18" value="&lt;b&gt;&lt;i&gt;初始化&lt;/i&gt;&lt;/b&gt;" style="rounded=0;whiteSpace=wrap;html=1;fontSize=14;fillColor=#fff2cc;strokeColor=#d6b656;" vertex="1" parent="1">
          <mxGeometry x="940" y="280" width="120" height="60" as="geometry" />
        </mxCell>
      </root>
    </mxGraphModel>
  </diagram>
</mxfile>
